<mxfile host="app.diagrams.net" modified="2024-05-01T08:29:02.093Z" agent="Mozilla/5.0 (Windows NT 10.0; Win64; x64) AppleWebKit/537.36 (KHTML, like Gecko) Chrome/123.0.0.0 Safari/537.36" version="24.2.2" etag="owchfaPujfAV5-XPG9wx" type="github">
  <diagram name="Страница — 1" id="cse5t66gSOk1IrYd5LDo">
    <mxGraphModel>
      <root>
        <mxCell id="0" />
        <mxCell id="1" parent="0" />
      </root>
    </mxGraphModel>
  </diagram>
</mxfile>
